<svg width="512" height="512" viewBox="0 0 512 512" fill="none" xmlns="http://www.w3.org/2000/svg">
<rect width="512" height="512" fill="#F5F5F5"/>
<g clip-path="url(#clip0_0_1)">
<rect width="512" height="512" fill="#111111"/>
<path d="M419.66 96.65V191.38C419.66 196.09 415.85 199.9 411.14 199.9H365.9C361.2 199.9 357.39 196.09 357.39 191.38V158.93C357.39 154.22 353.57 150.41 348.87 150.41H295.66C290.95 150.41 287.14 154.22 287.14 158.93V393.07C287.14 397.78 290.95 401.59 295.66 401.59H318.93C323.64 401.59 327.45 405.4 327.45 410.11V455.35C327.45 460.05 323.64 463.86 318.93 463.86H193.07C188.36 463.86 184.55 460.05 184.55 455.35V410.11C184.55 405.4 188.36 401.59 193.07 401.59H216.34C221.05 401.59 224.86 397.78 224.86 393.07V158.93C224.86 154.22 221.05 150.41 216.34 150.41H163.13C158.43 150.41 154.61 154.22 154.61 158.93V191.38C154.61 196.09 150.8 199.9 146.1 199.9H100.86C96.15 199.9 92.34 196.09 92.34 191.38V96.65C92.34 91.95 96.15 88.14 100.86 88.14H411.14C415.85 88.14 419.66 91.95 419.66 96.65Z" fill="#5CB6FF"/>
<path d="M15 114.235C6.716 114.235 0 107.519 0 99.235V15C0 6.716 6.716 0 15 0H99.235C107.519 0 114.235 6.716 114.235 15C114.235 23.284 107.519 30 99.235 30H30V99.235C30 107.52 23.284 114.235 15 114.235Z" fill="url(#paint0_linear_0_1)"/>
<path d="M497 114.235C488.716 114.235 482 107.519 482 99.235V30H412.765C404.481 30 397.765 23.284 397.765 15C397.765 6.716 404.481 0 412.765 0H497C505.284 0 512 6.716 512 15V99.235C512 107.52 505.284 114.235 497 114.235Z" fill="url(#paint1_linear_0_1)"/>
<path d="M497 512H412.765C404.481 512 397.765 505.284 397.765 497C397.765 488.716 404.481 482 412.765 482H482V412.765C482 404.481 488.716 397.765 497 397.765C505.284 397.765 512 404.481 512 412.765V497C512 505.284 505.284 512 497 512Z" fill="url(#paint2_linear_0_1)"/>
<path d="M99.235 512H15C6.716 512 0 505.284 0 497V412.765C0 404.481 6.716 397.765 15 397.765C23.284 397.765 30 404.481 30 412.765V482H99.235C107.519 482 114.235 488.716 114.235 497C114.235 505.284 107.52 512 99.235 512Z" fill="url(#paint3_linear_0_1)"/>
<path d="M419.66 96.65V191.38C419.66 196.09 415.85 199.9 411.14 199.9H365.9C361.2 199.9 357.39 196.09 357.39 191.38V158.93C357.39 154.22 353.57 150.41 348.87 150.41H295.66C290.95 150.41 287.14 154.22 287.14 158.93V393.07C287.14 397.78 290.95 401.59 295.66 401.59H318.93C323.64 401.59 327.45 405.4 327.45 410.11V455.35C327.45 460.05 323.64 463.86 318.93 463.86H256V88.14H411.14C415.85 88.14 419.66 91.95 419.66 96.65Z" fill="#274D6C"/>
</g>
<defs>
<linearGradient id="paint0_linear_0_1" x1="109" y1="101" x2="-0.999997" y2="-0.999995" gradientUnits="userSpaceOnUse">
<stop offset="0.218806" stop-color="#2BFFDC"/>
<stop offset="0.665126" stop-color="#5CB6FF"/>
</linearGradient>
<linearGradient id="paint1_linear_0_1" x1="416" y1="12" x2="447" y2="128" gradientUnits="userSpaceOnUse">
<stop offset="0.078785" stop-color="#5CB6FF"/>
<stop offset="1" stop-color="#2BFFDC"/>
</linearGradient>
<linearGradient id="paint2_linear_0_1" x1="528" y1="512" x2="398" y2="372" gradientUnits="userSpaceOnUse">
<stop offset="0.245109" stop-color="#2BFFDC"/>
<stop offset="0.495" stop-color="#5CB6FF"/>
</linearGradient>
<linearGradient id="paint3_linear_0_1" x1="57.1175" y1="397.765" x2="57.1175" y2="512" gradientUnits="userSpaceOnUse">
<stop stop-color="#5CB6FF"/>
<stop offset="1" stop-color="#2BFFDC"/>
</linearGradient>
<clipPath id="clip0_0_1">
<rect width="512" height="512" fill="white"/>
</clipPath>
</defs>
</svg>
